<svg width="1600" height="719" viewBox="0 0 1600 719" fill="none" xmlns="http://www.w3.org/2000/svg">
<g clip-path="url(#clip0_20_630)">
<path d="M1600 0H0V718.652H1600V0Z" fill="#B51D44"/>
<path d="M1482.82 622.075H1479.92V717.567H1482.82V622.075Z" fill="#3F3D56"/>
<path d="M1481.37 635.579C1489.8 635.579 1496.62 629.533 1496.62 622.075C1496.62 614.617 1489.8 608.571 1481.37 608.571C1472.95 608.571 1466.12 614.617 1466.12 622.075C1466.12 629.533 1472.95 635.579 1481.37 635.579Z" fill="#3F3D56"/>
<path d="M1481.37 680.929C1481.37 680.929 1479.19 639.437 1434.53 644.26L1481.37 680.929Z" fill="#3F3D56"/>
<path d="M86.0994 672.286C94.9011 701.096 125.049 718.939 125.049 718.939C125.049 718.939 140.926 690.071 132.125 661.261C123.323 632.451 93.1751 614.608 93.1751 614.608C93.1751 614.608 77.2977 643.476 86.0994 672.286Z" fill="white"/>
<path d="M99.0329 666.095C123.185 686.913 126.135 718.916 126.135 718.916C126.135 718.916 89.9267 717.165 65.7748 696.347C41.6228 675.528 38.6729 643.525 38.6729 643.525C38.6729 643.525 74.8809 645.276 99.0329 666.095Z" fill="#3F3D56"/>
<path opacity="0.1" d="M640.913 0L0 389.663V300.884L494.971 0H640.913Z" fill="black"/>
<path opacity="0.1" d="M398.507 0L0 242.25V153.522L252.551 0H398.507Z" fill="black"/>
<path opacity="0.1" d="M135.449 0L0 82.3369V0H135.449Z" fill="black"/>
<path d="M1187.24 384.132H373V386.698H1187.24V384.132Z" fill="#3F3D56"/>
<path d="M920.391 682.799C916.952 682.799 913.589 681.896 910.729 680.204C907.869 678.512 905.64 676.107 904.324 673.293C903.008 670.479 902.663 667.383 903.334 664.395C904.005 661.408 905.662 658.664 908.094 656.51C910.526 654.357 913.625 652.89 916.998 652.296C920.372 651.702 923.869 652.007 927.047 653.172C930.225 654.338 932.941 656.312 934.852 658.844C936.763 661.376 937.783 664.354 937.783 667.4C937.777 671.482 935.943 675.397 932.683 678.284C929.423 681.171 925.002 682.795 920.391 682.799ZM920.391 654.567C917.525 654.567 914.723 655.319 912.34 656.729C909.956 658.139 908.099 660.144 907.002 662.489C905.905 664.834 905.618 667.414 906.177 669.903C906.736 672.393 908.117 674.679 910.143 676.474C912.17 678.269 914.753 679.491 917.564 679.986C920.375 680.481 923.289 680.227 925.937 679.256C928.586 678.285 930.849 676.64 932.442 674.529C934.034 672.419 934.884 669.938 934.884 667.4C934.88 663.997 933.351 660.735 930.634 658.33C927.918 655.924 924.234 654.57 920.391 654.567Z" fill="#F0F0F0"/>
<path d="M385.61 254.334H357V229H385.61V254.334ZM359.201 252.385H383.41V230.949H359.201V252.385Z" fill="#3F3D56"/>
<path d="M1150.5 403.806L1130.98 385.28L1151.9 368L1171.42 386.526L1150.5 403.806ZM1134.09 385.376L1150.6 401.052L1168.31 386.43L1151.79 370.754L1134.09 385.376Z" fill="#F0F0F0"/>
<path opacity="0.1" d="M1600 146.297V513.322C1545.03 513.322 1492.32 493.988 1453.45 459.573C1414.59 425.158 1392.75 378.48 1392.75 329.81C1392.75 281.139 1414.59 234.462 1453.45 200.047C1492.32 165.631 1545.03 146.297 1600 146.297Z" fill="black"/>
<path opacity="0.1" d="M1408.7 336.226C1496.74 336.226 1568.12 273.025 1568.12 195.063C1568.12 117.1 1496.74 53.8989 1408.7 53.8989C1320.65 53.8989 1249.28 117.1 1249.28 195.063C1249.28 273.025 1320.65 336.226 1408.7 336.226Z" fill="black"/>
<path opacity="0.1" d="M1268.12 184.796C1312.94 184.796 1349.28 152.621 1349.28 112.931C1349.28 73.241 1312.94 41.0659 1268.12 41.0659C1223.29 41.0659 1186.96 73.241 1186.96 112.931C1186.96 152.621 1223.29 184.796 1268.12 184.796Z" fill="black"/>
<path d="M1268.57 150.24C1260.22 150.24 1252.06 148.048 1245.12 143.943C1238.18 139.837 1232.77 134.001 1229.58 127.174C1226.39 120.346 1225.55 112.834 1227.18 105.586C1228.81 98.3375 1232.83 91.6797 1238.73 86.4542C1244.63 81.2286 1252.15 77.6699 1260.33 76.2282C1268.52 74.7865 1277 75.5265 1284.71 78.3545C1292.42 81.1825 1299.01 85.9717 1303.65 92.1163C1308.29 98.2609 1310.76 105.485 1310.76 112.875C1310.75 122.781 1306.3 132.279 1298.39 139.284C1290.48 146.288 1279.75 150.229 1268.57 150.24Z" fill="#3F3D56"/>
<path d="M600.78 431.9H594.7L593.58 435H591.66L596.7 421.14H598.8L603.82 435H601.9L600.78 431.9ZM600.26 430.42L597.74 423.38L595.22 430.42H600.26ZM599.7 418.04L595.44 420.32V418.96L599.7 416.46V418.04ZM607.837 425.82C608.157 425.193 608.61 424.707 609.197 424.36C609.797 424.013 610.523 423.84 611.377 423.84V425.72H610.897C608.857 425.72 607.837 426.827 607.837 429.04V435H606.017V424.04H607.837V425.82ZM623.478 429.1C623.478 429.447 623.458 429.813 623.418 430.2H614.658C614.724 431.28 615.091 432.127 615.758 432.74C616.438 433.34 617.258 433.64 618.218 433.64C619.004 433.64 619.658 433.46 620.178 433.1C620.711 432.727 621.084 432.233 621.298 431.62H623.258C622.964 432.673 622.378 433.533 621.498 434.2C620.618 434.853 619.524 435.18 618.218 435.18C617.178 435.18 616.244 434.947 615.418 434.48C614.604 434.013 613.964 433.353 613.498 432.5C613.031 431.633 612.798 430.633 612.798 429.5C612.798 428.367 613.024 427.373 613.478 426.52C613.931 425.667 614.564 425.013 615.378 424.56C616.204 424.093 617.151 423.86 618.218 423.86C619.258 423.86 620.178 424.087 620.978 424.54C621.778 424.993 622.391 425.62 622.818 426.42C623.258 427.207 623.478 428.1 623.478 429.1ZM621.598 428.72C621.598 428.027 621.444 427.433 621.138 426.94C620.831 426.433 620.411 426.053 619.878 425.8C619.358 425.533 618.778 425.4 618.138 425.4C617.218 425.4 616.431 425.693 615.778 426.28C615.138 426.867 614.771 427.68 614.678 428.72H621.598ZM625.2 429.48C625.2 428.36 625.427 427.38 625.88 426.54C626.333 425.687 626.953 425.027 627.74 424.56C628.54 424.093 629.427 423.86 630.4 423.86C631.36 423.86 632.193 424.067 632.9 424.48C633.607 424.893 634.133 425.413 634.48 426.04V424.04H636.32V435H634.48V432.96C634.12 433.6 633.58 434.133 632.86 434.56C632.153 434.973 631.327 435.18 630.38 435.18C629.407 435.18 628.527 434.94 627.74 434.46C626.953 433.98 626.333 433.307 625.88 432.44C625.427 431.573 625.2 430.587 625.2 429.48ZM634.48 429.5C634.48 428.673 634.313 427.953 633.98 427.34C633.647 426.727 633.193 426.26 632.62 425.94C632.06 425.607 631.44 425.44 630.76 425.44C630.08 425.44 629.46 425.6 628.9 425.92C628.34 426.24 627.893 426.707 627.56 427.32C627.227 427.933 627.06 428.653 627.06 429.48C627.06 430.32 627.227 431.053 627.56 431.68C627.893 432.293 628.34 432.767 628.9 433.1C629.46 433.42 630.08 433.58 630.76 433.58C631.44 433.58 632.06 433.42 632.62 433.1C633.193 432.767 633.647 432.293 633.98 431.68C634.313 431.053 634.48 430.327 634.48 429.5ZM644.048 429.48C644.048 428.36 644.274 427.38 644.728 426.54C645.181 425.687 645.801 425.027 646.588 424.56C647.388 424.093 648.281 423.86 649.268 423.86C650.121 423.86 650.914 424.06 651.648 424.46C652.381 424.847 652.941 425.36 653.328 426V420.2H655.168V435H653.328V432.94C652.968 433.593 652.434 434.133 651.728 434.56C651.021 434.973 650.194 435.18 649.248 435.18C648.274 435.18 647.388 434.94 646.588 434.46C645.801 433.98 645.181 433.307 644.728 432.44C644.274 431.573 644.048 430.587 644.048 429.48ZM653.328 429.5C653.328 428.673 653.161 427.953 652.828 427.34C652.494 426.727 652.041 426.26 651.468 425.94C650.908 425.607 650.288 425.44 649.608 425.44C648.928 425.44 648.308 425.6 647.748 425.92C647.188 426.24 646.741 426.707 646.408 427.32C646.074 427.933 645.908 428.653 645.908 429.48C645.908 430.32 646.074 431.053 646.408 431.68C646.741 432.293 647.188 432.767 647.748 433.1C648.308 433.42 648.928 433.58 649.608 433.58C650.288 433.58 650.908 433.42 651.468 433.1C652.041 432.767 652.494 432.293 652.828 431.68C653.161 431.053 653.328 430.327 653.328 429.5ZM668.243 429.1C668.243 429.447 668.223 429.813 668.183 430.2H659.423C659.49 431.28 659.856 432.127 660.523 432.74C661.203 433.34 662.023 433.64 662.983 433.64C663.77 433.64 664.423 433.46 664.943 433.1C665.476 432.727 665.85 432.233 666.063 431.62H668.023C667.73 432.673 667.143 433.533 666.263 434.2C665.383 434.853 664.29 435.18 662.983 435.18C661.943 435.18 661.01 434.947 660.183 434.48C659.37 434.013 658.73 433.353 658.263 432.5C657.796 431.633 657.563 430.633 657.563 429.5C657.563 428.367 657.79 427.373 658.243 426.52C658.696 425.667 659.33 425.013 660.143 424.56C660.97 424.093 661.916 423.86 662.983 423.86C664.023 423.86 664.943 424.087 665.743 424.54C666.543 424.993 667.156 425.62 667.583 426.42C668.023 427.207 668.243 428.1 668.243 429.1ZM666.363 428.72C666.363 428.027 666.21 427.433 665.903 426.94C665.596 426.433 665.176 426.053 664.643 425.8C664.123 425.533 663.543 425.4 662.903 425.4C661.983 425.4 661.196 425.693 660.543 426.28C659.903 426.867 659.536 427.68 659.443 428.72H666.363ZM685.978 429.1C685.978 429.447 685.958 429.813 685.918 430.2H677.158C677.224 431.28 677.591 432.127 678.258 432.74C678.938 433.34 679.758 433.64 680.718 433.64C681.504 433.64 682.158 433.46 682.678 433.1C683.211 432.727 683.584 432.233 683.798 431.62H685.758C685.464 432.673 684.878 433.533 683.998 434.2C683.118 434.853 682.024 435.18 680.718 435.18C679.678 435.18 678.744 434.947 677.918 434.48C677.104 434.013 676.464 433.353 675.998 432.5C675.531 431.633 675.298 430.633 675.298 429.5C675.298 428.367 675.524 427.373 675.978 426.52C676.431 425.667 677.064 425.013 677.878 424.56C678.704 424.093 679.651 423.86 680.718 423.86C681.758 423.86 682.678 424.087 683.478 424.54C684.278 424.993 684.891 425.62 685.318 426.42C685.758 427.207 685.978 428.1 685.978 429.1ZM684.098 428.72C684.098 428.027 683.944 427.433 683.638 426.94C683.331 426.433 682.911 426.053 682.378 425.8C681.858 425.533 681.278 425.4 680.638 425.4C679.718 425.4 678.931 425.693 678.278 426.28C677.638 426.867 677.271 427.68 677.178 428.72H684.098ZM692.46 433.32L695.86 424.04H697.8L693.5 435H691.38L687.08 424.04H689.04L692.46 433.32ZM709.591 429.1C709.591 429.447 709.571 429.813 709.531 430.2H700.771C700.837 431.28 701.204 432.127 701.871 432.74C702.551 433.34 703.371 433.64 704.331 433.64C705.117 433.64 705.771 433.46 706.291 433.1C706.824 432.727 707.197 432.233 707.411 431.62H709.371C709.077 432.673 708.491 433.533 707.611 434.2C706.731 434.853 705.637 435.18 704.331 435.18C703.291 435.18 702.357 434.947 701.531 434.48C700.717 434.013 700.077 433.353 699.611 432.5C699.144 431.633 698.911 430.633 698.911 429.5C698.911 428.367 699.137 427.373 699.591 426.52C700.044 425.667 700.677 425.013 701.491 424.56C702.317 424.093 703.264 423.86 704.331 423.86C705.371 423.86 706.291 424.087 707.091 424.54C707.891 424.993 708.504 425.62 708.931 426.42C709.371 427.207 709.591 428.1 709.591 429.1ZM707.711 428.72C707.711 428.027 707.557 427.433 707.251 426.94C706.944 426.433 706.524 426.053 705.991 425.8C705.471 425.533 704.891 425.4 704.251 425.4C703.331 425.4 702.544 425.693 701.891 426.28C701.251 426.867 700.884 427.68 700.791 428.72H707.711ZM717.333 423.84C718.666 423.84 719.746 424.247 720.573 425.06C721.4 425.86 721.813 427.02 721.813 428.54V435H720.013V428.8C720.013 427.707 719.74 426.873 719.193 426.3C718.646 425.713 717.9 425.42 716.953 425.42C715.993 425.42 715.226 425.72 714.653 426.32C714.093 426.92 713.813 427.793 713.813 428.94V435H711.993V424.04H713.813V425.6C714.173 425.04 714.66 424.607 715.273 424.3C715.9 423.993 716.586 423.84 717.333 423.84ZM727.006 425.54V432C727.006 432.533 727.119 432.913 727.346 433.14C727.573 433.353 727.966 433.46 728.526 433.46H729.866V435H728.226C727.213 435 726.453 434.767 725.946 434.3C725.439 433.833 725.186 433.067 725.186 432V425.54H723.766V424.04H725.186V421.28H727.006V424.04H729.866V425.54H727.006ZM736.851 435.18C735.825 435.18 734.891 434.947 734.051 434.48C733.225 434.013 732.571 433.353 732.091 432.5C731.625 431.633 731.391 430.633 731.391 429.5C731.391 428.38 731.631 427.393 732.111 426.54C732.605 425.673 733.271 425.013 734.111 424.56C734.951 424.093 735.891 423.86 736.931 423.86C737.971 423.86 738.911 424.093 739.751 424.56C740.591 425.013 741.251 425.667 741.731 426.52C742.225 427.373 742.471 428.367 742.471 429.5C742.471 430.633 742.218 431.633 741.711 432.5C741.218 433.353 740.545 434.013 739.691 434.48C738.838 434.947 737.891 435.18 736.851 435.18ZM736.851 433.58C737.505 433.58 738.118 433.427 738.691 433.12C739.265 432.813 739.725 432.353 740.071 431.74C740.431 431.127 740.611 430.38 740.611 429.5C740.611 428.62 740.438 427.873 740.091 427.26C739.745 426.647 739.291 426.193 738.731 425.9C738.171 425.593 737.565 425.44 736.911 425.44C736.245 425.44 735.631 425.593 735.071 425.9C734.525 426.193 734.085 426.647 733.751 427.26C733.418 427.873 733.251 428.62 733.251 429.5C733.251 430.393 733.411 431.147 733.731 431.76C734.065 432.373 734.505 432.833 735.051 433.14C735.598 433.433 736.198 433.58 736.851 433.58ZM748.744 435.18C747.904 435.18 747.151 435.04 746.484 434.76C745.818 434.467 745.291 434.067 744.904 433.56C744.518 433.04 744.304 432.447 744.264 431.78H746.144C746.198 432.327 746.451 432.773 746.904 433.12C747.371 433.467 747.978 433.64 748.724 433.64C749.418 433.64 749.964 433.487 750.364 433.18C750.764 432.873 750.964 432.487 750.964 432.02C750.964 431.54 750.751 431.187 750.324 430.96C749.898 430.72 749.238 430.487 748.344 430.26C747.531 430.047 746.864 429.833 746.344 429.62C745.838 429.393 745.398 429.067 745.024 428.64C744.664 428.2 744.484 427.627 744.484 426.92C744.484 426.36 744.651 425.847 744.984 425.38C745.318 424.913 745.791 424.547 746.404 424.28C747.018 424 747.718 423.86 748.504 423.86C749.718 423.86 750.698 424.167 751.444 424.78C752.191 425.393 752.591 426.233 752.644 427.3H750.824C750.784 426.727 750.551 426.267 750.124 425.92C749.711 425.573 749.151 425.4 748.444 425.4C747.791 425.4 747.271 425.54 746.884 425.82C746.498 426.1 746.304 426.467 746.304 426.92C746.304 427.28 746.418 427.58 746.644 427.82C746.884 428.047 747.178 428.233 747.524 428.38C747.884 428.513 748.378 428.667 749.004 428.84C749.791 429.053 750.431 429.267 750.924 429.48C751.418 429.68 751.838 429.987 752.184 430.4C752.544 430.813 752.731 431.353 752.744 432.02C752.744 432.62 752.578 433.16 752.244 433.64C751.911 434.12 751.438 434.5 750.824 434.78C750.224 435.047 749.531 435.18 748.744 435.18ZM759.965 429.48C759.965 428.36 760.192 427.38 760.645 426.54C761.099 425.687 761.719 425.027 762.505 424.56C763.305 424.093 764.199 423.86 765.185 423.86C766.039 423.86 766.832 424.06 767.565 424.46C768.299 424.847 768.859 425.36 769.245 426V420.2H771.085V435H769.245V432.94C768.885 433.593 768.352 434.133 767.645 434.56C766.939 434.973 766.112 435.18 765.165 435.18C764.192 435.18 763.305 434.94 762.505 434.46C761.719 433.98 761.099 433.307 760.645 432.44C760.192 431.573 759.965 430.587 759.965 429.48ZM769.245 429.5C769.245 428.673 769.079 427.953 768.745 427.34C768.412 426.727 767.959 426.26 767.385 425.94C766.825 425.607 766.205 425.44 765.525 425.44C764.845 425.44 764.225 425.6 763.665 425.92C763.105 426.24 762.659 426.707 762.325 427.32C761.992 427.933 761.825 428.653 761.825 429.48C761.825 430.32 761.992 431.053 762.325 431.68C762.659 432.293 763.105 432.767 763.665 433.1C764.225 433.42 764.845 433.58 765.525 433.58C766.205 433.58 766.825 433.42 767.385 433.1C767.959 432.767 768.412 432.293 768.745 431.68C769.079 431.053 769.245 430.327 769.245 429.5ZM773.481 429.48C773.481 428.36 773.708 427.38 774.161 426.54C774.614 425.687 775.234 425.027 776.021 424.56C776.821 424.093 777.708 423.86 778.681 423.86C779.641 423.86 780.474 424.067 781.181 424.48C781.888 424.893 782.414 425.413 782.761 426.04V424.04H784.601V435H782.761V432.96C782.401 433.6 781.861 434.133 781.141 434.56C780.434 434.973 779.608 435.18 778.661 435.18C777.688 435.18 776.808 434.94 776.021 434.46C775.234 433.98 774.614 433.307 774.161 432.44C773.708 431.573 773.481 430.587 773.481 429.48ZM782.761 429.5C782.761 428.673 782.594 427.953 782.261 427.34C781.928 426.727 781.474 426.26 780.901 425.94C780.341 425.607 779.721 425.44 779.041 425.44C778.361 425.44 777.741 425.6 777.181 425.92C776.621 426.24 776.174 426.707 775.841 427.32C775.508 427.933 775.341 428.653 775.341 429.48C775.341 430.32 775.508 431.053 775.841 431.68C776.174 432.293 776.621 432.767 777.181 433.1C777.741 433.42 778.361 433.58 779.041 433.58C779.721 433.58 780.341 433.42 780.901 433.1C781.474 432.767 781.928 432.293 782.261 431.68C782.594 431.053 782.761 430.327 782.761 429.5ZM794.829 422.54V427.2H799.909V428.7H794.829V433.5H800.509V435H793.009V421.04H800.509V422.54H794.829ZM807.143 435.18C806.303 435.18 805.549 435.04 804.883 434.76C804.216 434.467 803.689 434.067 803.303 433.56C802.916 433.04 802.703 432.447 802.663 431.78H804.543C804.596 432.327 804.849 432.773 805.303 433.12C805.769 433.467 806.376 433.64 807.123 433.64C807.816 433.64 808.363 433.487 808.763 433.18C809.163 432.873 809.363 432.487 809.363 432.02C809.363 431.54 809.149 431.187 808.723 430.96C808.296 430.72 807.636 430.487 806.743 430.26C805.929 430.047 805.263 429.833 804.743 429.62C804.236 429.393 803.796 429.067 803.423 428.64C803.063 428.2 802.883 427.627 802.883 426.92C802.883 426.36 803.049 425.847 803.383 425.38C803.716 424.913 804.189 424.547 804.803 424.28C805.416 424 806.116 423.86 806.903 423.86C808.116 423.86 809.096 424.167 809.843 424.78C810.589 425.393 810.989 426.233 811.043 427.3H809.223C809.183 426.727 808.949 426.267 808.523 425.92C808.109 425.573 807.549 425.4 806.843 425.4C806.189 425.4 805.669 425.54 805.283 425.82C804.896 426.1 804.703 426.467 804.703 426.92C804.703 427.28 804.816 427.58 805.043 427.82C805.283 428.047 805.576 428.233 805.923 428.38C806.283 428.513 806.776 428.667 807.403 428.84C808.189 429.053 808.829 429.267 809.323 429.48C809.816 429.68 810.236 429.987 810.583 430.4C810.943 430.813 811.129 431.353 811.143 432.02C811.143 432.62 810.976 433.16 810.643 433.64C810.309 434.12 809.836 434.5 809.223 434.78C808.623 435.047 807.929 435.18 807.143 435.18ZM813.032 429.5C813.032 428.367 813.259 427.38 813.712 426.54C814.165 425.687 814.792 425.027 815.592 424.56C816.405 424.093 817.332 423.86 818.372 423.86C819.719 423.86 820.825 424.187 821.692 424.84C822.572 425.493 823.152 426.4 823.432 427.56H821.472C821.285 426.893 820.919 426.367 820.372 425.98C819.839 425.593 819.172 425.4 818.372 425.4C817.332 425.4 816.492 425.76 815.852 426.48C815.212 427.187 814.892 428.193 814.892 429.5C814.892 430.82 815.212 431.84 815.852 432.56C816.492 433.28 817.332 433.64 818.372 433.64C819.172 433.64 819.839 433.453 820.372 433.08C820.905 432.707 821.272 432.173 821.472 431.48H823.432C823.139 432.6 822.552 433.5 821.672 434.18C820.792 434.847 819.692 435.18 818.372 435.18C817.332 435.18 816.405 434.947 815.592 434.48C814.792 434.013 814.165 433.353 813.712 432.5C813.259 431.647 813.032 430.647 813.032 429.5ZM830.64 435.18C829.614 435.18 828.68 434.947 827.84 434.48C827.014 434.013 826.36 433.353 825.88 432.5C825.414 431.633 825.18 430.633 825.18 429.5C825.18 428.38 825.42 427.393 825.9 426.54C826.394 425.673 827.06 425.013 827.9 424.56C828.74 424.093 829.68 423.86 830.72 423.86C831.76 423.86 832.7 424.093 833.54 424.56C834.38 425.013 835.04 425.667 835.52 426.52C836.014 427.373 836.26 428.367 836.26 429.5C836.26 430.633 836.007 431.633 835.5 432.5C835.007 433.353 834.334 434.013 833.48 434.48C832.627 434.947 831.68 435.18 830.64 435.18ZM830.64 433.58C831.294 433.58 831.907 433.427 832.48 433.12C833.054 432.813 833.514 432.353 833.86 431.74C834.22 431.127 834.4 430.38 834.4 429.5C834.4 428.62 834.227 427.873 833.88 427.26C833.534 426.647 833.08 426.193 832.52 425.9C831.96 425.593 831.354 425.44 830.7 425.44C830.034 425.44 829.42 425.593 828.86 425.9C828.314 426.193 827.874 426.647 827.54 427.26C827.207 427.873 827.04 428.62 827.04 429.5C827.04 430.393 827.2 431.147 827.52 431.76C827.854 432.373 828.294 432.833 828.84 433.14C829.387 433.433 829.987 433.58 830.64 433.58ZM840.473 420.2V435H838.653V420.2H840.473ZM842.895 429.48C842.895 428.36 843.122 427.38 843.575 426.54C844.028 425.687 844.648 425.027 845.435 424.56C846.235 424.093 847.122 423.86 848.095 423.86C849.055 423.86 849.888 424.067 850.595 424.48C851.302 424.893 851.828 425.413 852.175 426.04V424.04H854.015V435H852.175V432.96C851.815 433.6 851.275 434.133 850.555 434.56C849.848 434.973 849.022 435.18 848.075 435.18C847.102 435.18 846.222 434.94 845.435 434.46C844.648 433.98 844.028 433.307 843.575 432.44C843.122 431.573 842.895 430.587 842.895 429.48ZM852.175 429.5C852.175 428.673 852.008 427.953 851.675 427.34C851.342 426.727 850.888 426.26 850.315 425.94C849.755 425.607 849.135 425.44 848.455 425.44C847.775 425.44 847.155 425.6 846.595 425.92C846.035 426.24 845.588 426.707 845.255 427.32C844.922 427.933 844.755 428.653 844.755 429.48C844.755 430.32 844.922 431.053 845.255 431.68C845.588 432.293 846.035 432.767 846.595 433.1C847.155 433.42 847.775 433.58 848.455 433.58C849.135 433.58 849.755 433.42 850.315 433.1C850.888 432.767 851.342 432.293 851.675 431.68C852.008 431.053 852.175 430.327 852.175 429.5ZM861.743 429.48C861.743 428.36 861.969 427.38 862.423 426.54C862.876 425.687 863.496 425.027 864.283 424.56C865.083 424.093 865.976 423.86 866.963 423.86C867.816 423.86 868.609 424.06 869.343 424.46C870.076 424.847 870.636 425.36 871.023 426V420.2H872.863V435H871.023V432.94C870.663 433.593 870.129 434.133 869.423 434.56C868.716 434.973 867.889 435.18 866.943 435.18C865.969 435.18 865.083 434.94 864.283 434.46C863.496 433.98 862.876 433.307 862.423 432.44C861.969 431.573 861.743 430.587 861.743 429.48ZM871.023 429.5C871.023 428.673 870.856 427.953 870.523 427.34C870.189 426.727 869.736 426.26 869.163 425.94C868.603 425.607 867.983 425.44 867.303 425.44C866.623 425.44 866.003 425.6 865.443 425.92C864.883 426.24 864.436 426.707 864.103 427.32C863.769 427.933 863.603 428.653 863.603 429.48C863.603 430.32 863.769 431.053 864.103 431.68C864.436 432.293 864.883 432.767 865.443 433.1C866.003 433.42 866.623 433.58 867.303 433.58C867.983 433.58 868.603 433.42 869.163 433.1C869.736 432.767 870.189 432.293 870.523 431.68C870.856 431.053 871.023 430.327 871.023 429.5ZM885.938 429.1C885.938 429.447 885.918 429.813 885.878 430.2H877.118C877.185 431.28 877.552 432.127 878.218 432.74C878.898 433.34 879.718 433.64 880.678 433.64C881.465 433.64 882.118 433.46 882.638 433.1C883.172 432.727 883.545 432.233 883.758 431.62H885.718C885.425 432.673 884.838 433.533 883.958 434.2C883.078 434.853 881.985 435.18 880.678 435.18C879.638 435.18 878.705 434.947 877.878 434.48C877.065 434.013 876.425 433.353 875.958 432.5C875.492 431.633 875.258 430.633 875.258 429.5C875.258 428.367 875.485 427.373 875.938 426.52C876.392 425.667 877.025 425.013 877.838 424.56C878.665 424.093 879.612 423.86 880.678 423.86C881.718 423.86 882.638 424.087 883.438 424.54C884.238 424.993 884.852 425.62 885.278 426.42C885.718 427.207 885.938 428.1 885.938 429.1ZM884.058 428.72C884.058 428.027 883.905 427.433 883.598 426.94C883.292 426.433 882.872 426.053 882.338 425.8C881.818 425.533 881.238 425.4 880.598 425.4C879.678 425.4 878.892 425.693 878.238 426.28C877.598 426.867 877.232 427.68 877.138 428.72H884.058ZM895.493 421.06V435H893.673V421.06H895.493ZM903.935 423.84C905.268 423.84 906.348 424.247 907.175 425.06C908.001 425.86 908.415 427.02 908.415 428.54V435H906.615V428.8C906.615 427.707 906.341 426.873 905.795 426.3C905.248 425.713 904.501 425.42 903.555 425.42C902.595 425.42 901.828 425.72 901.255 426.32C900.695 426.92 900.415 427.793 900.415 428.94V435H898.595V424.04H900.415V425.6C900.775 425.04 901.261 424.607 901.875 424.3C902.501 423.993 903.188 423.84 903.935 423.84ZM915.848 425.54H913.548V435H911.728V425.54H910.308V424.04H911.728V423.26C911.728 422.033 912.041 421.14 912.668 420.58C913.308 420.007 914.328 419.72 915.728 419.72V421.24C914.928 421.24 914.361 421.4 914.028 421.72C913.708 422.027 913.548 422.54 913.548 423.26V424.04H915.848V425.54ZM922.75 435.18C921.723 435.18 920.79 434.947 919.95 434.48C919.123 434.013 918.47 433.353 917.99 432.5C917.523 431.633 917.29 430.633 917.29 429.5C917.29 428.38 917.53 427.393 918.01 426.54C918.503 425.673 919.17 425.013 920.01 424.56C920.85 424.093 921.79 423.86 922.83 423.86C923.87 423.86 924.81 424.093 925.65 424.56C926.49 425.013 927.15 425.667 927.63 426.52C928.123 427.373 928.37 428.367 928.37 429.5C928.37 430.633 928.116 431.633 927.61 432.5C927.116 433.353 926.443 434.013 925.59 434.48C924.736 434.947 923.79 435.18 922.75 435.18ZM922.75 433.58C923.403 433.58 924.016 433.427 924.59 433.12C925.163 432.813 925.623 432.353 925.97 431.74C926.33 431.127 926.51 430.38 926.51 429.5C926.51 428.62 926.336 427.873 925.99 427.26C925.643 426.647 925.19 426.193 924.63 425.9C924.07 425.593 923.463 425.44 922.81 425.44C922.143 425.44 921.53 425.593 920.97 425.9C920.423 426.193 919.983 426.647 919.65 427.26C919.316 427.873 919.15 428.62 919.15 429.5C919.15 430.393 919.31 431.147 919.63 431.76C919.963 432.373 920.403 432.833 920.95 433.14C921.496 433.433 922.096 433.58 922.75 433.58ZM932.583 425.82C932.903 425.193 933.356 424.707 933.943 424.36C934.543 424.013 935.269 423.84 936.123 423.84V425.72H935.643C933.603 425.72 932.583 426.827 932.583 429.04V435H930.763V424.04H932.583V425.82ZM951.404 423.84C952.257 423.84 953.017 424.02 953.684 424.38C954.35 424.727 954.877 425.253 955.264 425.96C955.65 426.667 955.844 427.527 955.844 428.54V435H954.044V428.8C954.044 427.707 953.77 426.873 953.224 426.3C952.69 425.713 951.964 425.42 951.044 425.42C950.097 425.42 949.344 425.727 948.784 426.34C948.224 426.94 947.944 427.813 947.944 428.96V435H946.144V428.8C946.144 427.707 945.87 426.873 945.324 426.3C944.79 425.713 944.064 425.42 943.144 425.42C942.197 425.42 941.444 425.727 940.884 426.34C940.324 426.94 940.044 427.813 940.044 428.96V435H938.224V424.04H940.044V425.62C940.404 425.047 940.884 424.607 941.484 424.3C942.097 423.993 942.77 423.84 943.504 423.84C944.424 423.84 945.237 424.047 945.944 424.46C946.65 424.873 947.177 425.48 947.524 426.28C947.83 425.507 948.337 424.907 949.044 424.48C949.75 424.053 950.537 423.84 951.404 423.84ZM958.149 429.48C958.149 428.36 958.376 427.38 958.829 426.54C959.282 425.687 959.902 425.027 960.689 424.56C961.489 424.093 962.376 423.86 963.349 423.86C964.309 423.86 965.142 424.067 965.849 424.48C966.556 424.893 967.082 425.413 967.429 426.04V424.04H969.269V435H967.429V432.96C967.069 433.6 966.529 434.133 965.809 434.56C965.102 434.973 964.276 435.18 963.329 435.18C962.356 435.18 961.476 434.94 960.689 434.46C959.902 433.98 959.282 433.307 958.829 432.44C958.376 431.573 958.149 430.587 958.149 429.48ZM967.429 429.5C967.429 428.673 967.262 427.953 966.929 427.34C966.596 426.727 966.142 426.26 965.569 425.94C965.009 425.607 964.389 425.44 963.709 425.44C963.029 425.44 962.409 425.6 961.849 425.92C961.289 426.24 960.842 426.707 960.509 427.32C960.176 427.933 960.009 428.653 960.009 429.48C960.009 430.32 960.176 431.053 960.509 431.68C960.842 432.293 961.289 432.767 961.849 433.1C962.409 433.42 963.029 433.58 963.709 433.58C964.389 433.58 965.009 433.42 965.569 433.1C966.142 432.767 966.596 432.293 966.929 431.68C967.262 431.053 967.429 430.327 967.429 429.5ZM966.009 420.94L961.749 423.22V421.86L966.009 419.36V420.94ZM974.565 425.54V432C974.565 432.533 974.678 432.913 974.905 433.14C975.131 433.353 975.525 433.46 976.085 433.46H977.425V435H975.785C974.771 435 974.011 434.767 973.505 434.3C972.998 433.833 972.745 433.067 972.745 432V425.54H971.325V424.04H972.745V421.28H974.565V424.04H977.425V425.54H974.565ZM980.57 422.26C980.223 422.26 979.93 422.14 979.69 421.9C979.45 421.66 979.33 421.367 979.33 421.02C979.33 420.673 979.45 420.38 979.69 420.14C979.93 419.9 980.223 419.78 980.57 419.78C980.903 419.78 981.183 419.9 981.41 420.14C981.65 420.38 981.77 420.673 981.77 421.02C981.77 421.367 981.65 421.66 981.41 421.9C981.183 422.14 980.903 422.26 980.57 422.26ZM981.45 424.04V435H979.63V424.04H981.45ZM983.872 429.5C983.872 428.367 984.098 427.38 984.552 426.54C985.005 425.687 985.632 425.027 986.432 424.56C987.245 424.093 988.172 423.86 989.212 423.86C990.558 423.86 991.665 424.187 992.532 424.84C993.412 425.493 993.992 426.4 994.272 427.56H992.312C992.125 426.893 991.758 426.367 991.212 425.98C990.678 425.593 990.012 425.4 989.212 425.4C988.172 425.4 987.332 425.76 986.692 426.48C986.052 427.187 985.732 428.193 985.732 429.5C985.732 430.82 986.052 431.84 986.692 432.56C987.332 433.28 988.172 433.64 989.212 433.64C990.012 433.64 990.678 433.453 991.212 433.08C991.745 432.707 992.112 432.173 992.312 431.48H994.272C993.978 432.6 993.392 433.5 992.512 434.18C991.632 434.847 990.532 435.18 989.212 435.18C988.172 435.18 987.245 434.947 986.432 434.48C985.632 434.013 985.005 433.353 984.552 432.5C984.098 431.647 983.872 430.647 983.872 429.5ZM996.02 429.48C996.02 428.36 996.247 427.38 996.7 426.54C997.153 425.687 997.773 425.027 998.56 424.56C999.36 424.093 1000.25 423.86 1001.22 423.86C1002.18 423.86 1003.01 424.067 1003.72 424.48C1004.43 424.893 1004.95 425.413 1005.3 426.04V424.04H1007.14V435H1005.3V432.96C1004.94 433.6 1004.4 434.133 1003.68 434.56C1002.97 434.973 1002.15 435.18 1001.2 435.18C1000.23 435.18 999.347 434.94 998.56 434.46C997.773 433.98 997.153 433.307 996.7 432.44C996.247 431.573 996.02 430.587 996.02 429.48ZM1005.3 429.5C1005.3 428.673 1005.13 427.953 1004.8 427.34C1004.47 426.727 1004.01 426.26 1003.44 425.94C1002.88 425.607 1002.26 425.44 1001.58 425.44C1000.9 425.44 1000.28 425.6 999.72 425.92C999.16 426.24 998.713 426.707 998.38 427.32C998.047 427.933 997.88 428.653 997.88 429.48C997.88 430.32 998.047 431.053 998.38 431.68C998.713 432.293 999.16 432.767 999.72 433.1C1000.28 433.42 1000.9 433.58 1001.58 433.58C1002.26 433.58 1002.88 433.42 1003.44 433.1C1004.01 432.767 1004.47 432.293 1004.8 431.68C1005.13 431.053 1005.3 430.327 1005.3 429.5Z" fill="white"/>
<g clip-path="url(#clip1_20_630)">
<path d="M628 274.774V279.004L666.874 278.647V274.774H628Z" fill="white"/>
<path d="M628 301.885V306.115L666.874 305.758V301.885H628Z" fill="white"/>
<path d="M628 329.771V334L666.874 333.643V329.771H628Z" fill="white"/>
<path d="M754.73 274V278.229L793.604 277.873V274H754.73Z" fill="white"/>
<path d="M754.73 301.111V305.34L793.604 304.984V301.111H754.73Z" fill="white"/>
<path d="M754.73 328.996V333.225L793.604 332.869V328.996H754.73Z" fill="white"/>
<path d="M680.449 274.774H685.409L708.469 327.834L733.147 274.774H737.718L711.113 334H707.047L680.449 274.774Z" fill="white"/>
<path d="M820.194 334H816.026V274.774H820.194L860.079 327.059V274.774H863.865V334H860.094L820.427 283.682L820.194 334Z" fill="white"/>
<path d="M880.736 274.774H927.789V278.74H906.447V334H902.179V278.26H880.736V274.774Z" fill="white"/>
<path d="M957.427 286.781H953.376V321.854H957.427V286.781Z" fill="white"/>
<path d="M973.008 302.296H937.803V306.332H973.008V302.296Z" fill="white"/>
</g>
</g>
<defs>
<clipPath id="clip0_20_630">
<rect width="1600" height="719" fill="white"/>
</clipPath>
<clipPath id="clip1_20_630">
<rect width="345" height="60" fill="white" transform="translate(628 274)"/>
</clipPath>
</defs>
</svg>
