<svg width="265" height="214" viewBox="0 0 265 214" fill="none" xmlns="http://www.w3.org/2000/svg">
<g clip-path="url(#clip0_0_407)">
<path d="M176.464 214L176.408 213.995L88.536 205.835L8.63099 213.255C6.5447 213.449 4.46689 212.806 2.85462 211.468C1.24236 210.13 0.227727 208.207 0.0339291 206.122C0.0113727 205.879 8.55137e-05 205.635 6.59144e-05 205.391V15.4195C-0.00799929 13.4492 0.724335 11.5476 2.05208 10.0913C3.37982 8.63504 5.20617 7.73023 7.16952 7.55603L88.5361 0L88.5923 0.00533641L176.464 8.1653L256.369 0.74513C258.455 0.551387 260.533 1.19407 262.145 2.53178C263.758 3.8695 264.772 5.79268 264.966 7.87824C264.989 8.12104 265 8.3645 265 8.60862V198.58C265.008 200.551 264.276 202.452 262.948 203.909C261.62 205.365 259.794 206.27 257.831 206.444L176.464 214Z" fill="#3F3D56"/>
<path d="M122.491 70.2798C105.481 57.896 87.5845 46.1531 69.3016 35.3792L68.384 34.8385V71.3794H124.001L122.491 70.2798ZM69.5994 70.1644V36.9678C86.9921 47.2527 104.023 58.4124 120.264 70.1644L69.5994 70.1644ZM208.576 145.375C201.22 137.73 193.673 130.259 185.936 122.962C183.803 120.948 181.657 118.95 179.497 116.969C166.319 104.868 152.707 93.3586 138.662 82.4419L138.498 82.3143H68.384V146.405H209.567L208.576 145.375ZM69.5994 145.19V83.5293H138.082C151.625 94.0603 164.801 105.18 177.61 116.89C179.835 118.922 182.044 120.97 184.237 123.035C191.907 130.24 199.397 137.625 206.707 145.19H69.5994ZM208.576 145.375C201.22 137.73 193.673 130.259 185.936 122.962C183.803 120.948 181.657 118.95 179.497 116.969C166.319 104.868 152.707 93.3586 138.662 82.4419L138.498 82.3143H68.384V146.405H209.567L208.576 145.375ZM69.5994 145.19V83.5293H138.082C151.625 94.0603 164.801 105.18 177.61 116.89C179.835 118.922 182.044 120.97 184.237 123.035C191.907 130.24 199.397 137.625 206.707 145.19H69.5994ZM122.491 70.2798C105.481 57.896 87.5845 46.1531 69.3016 35.3792L68.384 34.8385V71.3794H124.001L122.491 70.2798ZM69.5994 70.1644V36.9678C86.9921 47.2527 104.023 58.4124 120.264 70.1644L69.5994 70.1644ZM122.491 70.2798C105.481 57.896 87.5845 46.1531 69.3016 35.3792L68.384 34.8385V71.3794H124.001L122.491 70.2798ZM69.5994 70.1644V36.9678C86.9921 47.2527 104.023 58.4124 120.264 70.1644L69.5994 70.1644ZM208.576 145.375C201.22 137.73 193.673 130.259 185.936 122.962C183.803 120.948 181.657 118.95 179.497 116.969C166.319 104.868 152.707 93.3586 138.662 82.4419L138.498 82.3143H68.384V146.405H209.567L208.576 145.375ZM69.5994 145.19V83.5293H138.082C151.625 94.0603 164.801 105.18 177.61 116.89C179.835 118.922 182.044 120.97 184.237 123.035C191.907 130.24 199.397 137.625 206.707 145.19H69.5994ZM8.22705 157.34V158.555H56.2299V176.172H8.22705V177.387H57.4453V157.34H8.22705ZM68.384 188.322V200.633L69.5994 200.521V189.537H256.773V188.322L68.384 188.322ZM256.773 158.555V157.34H68.384V177.387H256.773V176.172H69.5994V158.555L256.773 158.555ZM143.269 70.1644C119.952 52.1838 95.327 35.9644 69.5994 21.6407V9.33887L68.384 9.45125V21.8483L69.3199 22.8769C94.9427 37.1617 119.467 53.3312 142.691 71.2518L142.855 71.3794H256.773V70.1644L143.269 70.1644ZM56.2298 70.1644H8.22705V71.3794H57.4453V10.4658L56.2298 10.5782L56.2298 70.1644ZM256.773 82.3143H156.626L157.936 83.3896C170.266 93.5317 182.373 104.288 194.255 115.66C195.945 117.276 197.628 118.905 199.305 120.547C207.655 128.703 215.842 137.125 223.866 145.813L224.868 146.405H256.773V145.19H224.945C217.008 136.588 208.899 128.235 200.618 120.131C198.962 118.509 197.3 116.898 195.632 115.298C184.006 104.148 172.133 93.5581 160.011 83.5293H256.773V82.3143ZM8.22705 188.322V189.537H56.2299V201.76L57.4453 201.648V188.322H8.22705ZM8.22705 82.3143V83.5293H56.2299V145.19H8.22705V146.405H57.4453V82.3143H8.22705ZM122.491 70.2798C105.481 57.896 87.5845 46.1531 69.3016 35.3792L68.384 34.8385V71.3794H124.001L122.491 70.2798ZM69.5994 70.1644V36.9678C86.9921 47.2527 104.023 58.4124 120.264 70.1644L69.5994 70.1644ZM208.576 145.375C201.22 137.73 193.673 130.259 185.936 122.962C183.803 120.948 181.657 118.95 179.497 116.969C166.319 104.868 152.707 93.3586 138.662 82.4419L138.498 82.3143H68.384V146.405H209.567L208.576 145.375ZM69.5994 145.19V83.5293H138.082C151.625 94.0603 164.801 105.18 177.61 116.89C179.835 118.922 182.044 120.97 184.237 123.035C191.907 130.24 199.397 137.625 206.707 145.19H69.5994ZM122.491 70.2798C105.481 57.896 87.5845 46.1531 69.3016 35.3792L68.384 34.8385V71.3794H124.001L122.491 70.2798ZM69.5994 70.1644V36.9678C86.9921 47.2527 104.023 58.4124 120.264 70.1644L69.5994 70.1644ZM208.576 145.375C201.22 137.73 193.673 130.259 185.936 122.962C183.803 120.948 181.657 118.95 179.497 116.969C166.319 104.868 152.707 93.3586 138.662 82.4419L138.498 82.3143H68.384V146.405H209.567L208.576 145.375ZM69.5994 145.19V83.5293H138.082C151.625 94.0603 164.801 105.18 177.61 116.89C179.835 118.922 182.044 120.97 184.237 123.035C191.907 130.24 199.397 137.625 206.707 145.19H69.5994Z" fill="white"/>
<path d="M135.726 79.9546C135.726 95.3401 107.859 129.614 107.859 129.614C107.859 129.614 79.9912 95.3401 79.9912 79.9546C79.9912 72.5662 82.9273 65.4804 88.1534 60.2561C93.3796 55.0317 100.468 52.0967 107.859 52.0967C115.25 52.0967 122.338 55.0317 127.564 60.2561C132.79 65.4804 135.726 72.5662 135.726 79.9546Z" fill="#B51D44"/>
<path d="M120.599 78.7429C120.599 81.2616 119.851 83.7238 118.452 85.8181C117.052 87.9123 115.062 89.5446 112.734 90.5085C110.406 91.4724 107.845 91.7246 105.374 91.2332C102.903 90.7418 100.633 89.5289 98.8509 87.7479C97.0693 85.9669 95.856 83.6977 95.3644 81.2273C94.8729 78.757 95.1251 76.1964 96.0894 73.8694C97.0536 71.5423 98.6864 69.5534 100.781 68.1541C102.876 66.7547 105.339 66.0078 107.859 66.0078C109.532 66.007 111.189 66.3359 112.735 66.9756C114.281 67.6154 115.686 68.5534 116.869 69.7361C118.052 70.9188 118.99 72.323 119.63 73.8685C120.27 75.4139 120.599 77.0703 120.599 78.7429Z" fill="white"/>
<path d="M107.859 149.72C112.008 149.72 115.371 146.358 115.371 142.211C115.371 138.063 112.008 134.701 107.859 134.701C103.71 134.701 100.347 138.063 100.347 142.211C100.347 146.358 103.71 149.72 107.859 149.72Z" fill="#B51D44"/>
<path d="M179.835 47.939C185.969 47.939 190.942 42.9681 190.942 36.8362C190.942 30.7043 185.969 25.7334 179.835 25.7334C173.701 25.7334 168.729 30.7043 168.729 36.8362C168.729 42.9681 173.701 47.939 179.835 47.939Z" fill="#FF6584"/>
<path d="M214.665 71.0504H160.179C160.11 71.0513 160.042 71.0459 159.975 71.0343L185.744 26.4136C185.902 26.1357 186.13 25.9045 186.406 25.7437C186.682 25.5828 186.995 25.498 187.315 25.498C187.634 25.498 187.948 25.5828 188.224 25.7437C188.5 25.9045 188.728 26.1357 188.885 26.4136L206.18 56.3576L207.008 57.7904L214.665 71.0504Z" fill="white"/>
<path opacity="0.2" d="M214.665 71.0504H196.062L205.194 57.7901L205.851 56.835L206.18 56.3574L207.008 57.7901L214.665 71.0504Z" fill="black"/>
<path d="M245.002 71.0512H197.876L207.008 57.7912L207.665 56.836L219.565 39.5555C220.345 38.423 222.222 38.3525 223.139 39.3419C223.201 39.4094 223.258 39.4808 223.311 39.5555L245.002 71.0512Z" fill="white"/>
<path d="M248.499 133.951C251.603 133.951 254.12 131.435 254.12 128.331C254.12 125.228 251.603 122.712 248.499 122.712C245.394 122.712 242.878 125.228 242.878 128.331C242.878 131.435 245.394 133.951 248.499 133.951Z" fill="white"/>
<path d="M249.041 145.257H247.89L248.414 127.485L249.041 145.257Z" fill="#CBCBCB"/>
<path d="M248.516 130.853L249.752 129.144L248.499 131.276L248.364 131.04L248.516 130.853Z" fill="#CBCBCB"/>
<path d="M248.381 132.579L247.144 130.87L248.398 133.003L248.533 132.766L248.381 132.579Z" fill="#CBCBCB"/>
<path d="M232.515 128.558C237.1 128.558 240.817 124.843 240.817 120.259C240.817 115.676 237.1 111.96 232.515 111.96C227.93 111.96 224.213 115.676 224.213 120.259C224.213 124.843 227.93 128.558 232.515 128.558Z" fill="white"/>
<path d="M233.315 145.258H231.615L232.391 119.01L233.315 145.258Z" fill="#CBCBCB"/>
<path d="M232.54 123.984L234.366 121.46L232.515 124.61L232.316 124.26L232.54 123.984Z" fill="#CBCBCB"/>
<path d="M232.34 126.534L230.515 124.01L232.365 127.159L232.565 126.809L232.34 126.534Z" fill="#CBCBCB"/>
<path d="M39.7658 133.951C42.8704 133.951 45.3871 131.435 45.3871 128.331C45.3871 125.228 42.8704 122.712 39.7658 122.712C36.6613 122.712 34.1445 125.228 34.1445 128.331C34.1445 131.435 36.6613 133.951 39.7658 133.951Z" fill="white"/>
<path d="M40.308 145.257H39.1566L39.6814 127.485L40.308 145.257Z" fill="#CBCBCB"/>
<path d="M39.7828 130.853L41.019 129.144L39.7658 131.276L39.6306 131.04L39.7828 130.853Z" fill="#CBCBCB"/>
<path d="M39.6475 132.579L38.4113 130.87L39.6644 133.003L39.7996 132.766L39.6475 132.579Z" fill="#CBCBCB"/>
<path d="M23.7821 128.558C28.3673 128.558 32.0843 124.843 32.0843 120.259C32.0843 115.676 28.3673 111.96 23.7821 111.96C19.197 111.96 15.48 115.676 15.48 120.259C15.48 124.843 19.197 128.558 23.7821 128.558Z" fill="white"/>
<path d="M24.5823 145.258H22.882L23.6574 119.01L24.5823 145.258Z" fill="#CBCBCB"/>
<path d="M23.8073 123.984L25.6326 121.46L23.7823 124.61L23.5824 124.26L23.8073 123.984Z" fill="#CBCBCB"/>
<path d="M23.6074 126.534L21.7817 124.01L23.6324 127.159L23.8323 126.809L23.6074 126.534Z" fill="#CBCBCB"/>
</g>
<defs>
<clipPath id="clip0_0_407">
<rect width="265" height="214" fill="white"/>
</clipPath>
</defs>
</svg>
